<!-- Generated by IcoMoon.io -->
<svg version="1.1" xmlns="http://www.w3.org/2000/svg" width="32" height="32" viewBox="0 0 32 32">
<title>carbon_logo-youtube</title>
<path d="M29.41 9.26c-0.159-0.592-0.471-1.132-0.905-1.565s-0.973-0.745-1.565-0.905c-2.18-0.59-10.94-0.59-10.94-0.59s-8.76 0-10.94 0.59c-0.592 0.159-1.132 0.471-1.565 0.905s-0.745 0.973-0.905 1.565c-0.407 2.223-0.605 4.48-0.59 6.74-0.015 2.26 0.183 4.517 0.59 6.74 0.159 0.592 0.471 1.132 0.905 1.565s0.973 0.746 1.565 0.905c2.18 0.59 10.94 0.59 10.94 0.59s8.76 0 10.94-0.59c0.592-0.159 1.132-0.471 1.565-0.905s0.745-0.973 0.905-1.565c0.407-2.223 0.605-4.48 0.59-6.74 0.015-2.26-0.183-4.517-0.59-6.74zM13.2 20.2v-8.4l7.27 4.2-7.27 4.2z"></path>
</svg>
