<!-- Generated by IcoMoon.io -->
<svg version="1.1" xmlns="http://www.w3.org/2000/svg" width="32" height="32" viewBox="0 0 32 32">
<title>gridicons_search</title>
<path fill="#fff" d="M28 25.333l-6.872-6.872c1.27-1.931 1.779-4.264 1.428-6.549s-1.538-4.357-3.329-5.817-4.062-2.203-6.37-2.086c-2.308 0.117-4.491 1.087-6.125 2.722s-2.604 3.817-2.722 6.125c-0.118 2.308 0.626 4.578 2.086 6.37s3.533 2.978 5.817 3.329c2.284 0.351 4.618-0.158 6.549-1.428l6.872 6.872 2.667-2.667zM6.667 13.333c0-3.676 2.991-6.667 6.667-6.667s6.667 2.991 6.667 6.667c0 3.676-2.991 6.667-6.667 6.667s-6.667-2.991-6.667-6.667z"></path>
</svg>
