<!-- Generated by IcoMoon.io -->
<svg version="1.1" xmlns="http://www.w3.org/2000/svg" width="133" height="32" viewBox="0 0 133 32">
<title>OJJO</title>
<path fill="#fff" d="M27.415 27.372c-3.095 3.085-6.883 4.628-11.364 4.628s-8.284-1.543-11.408-4.628c-3.095-3.115-4.643-6.905-4.643-11.372s1.548-8.242 4.643-11.328c3.125-3.115 6.928-4.672 11.408-4.672s8.269 1.557 11.364 4.672c3.125 3.085 4.687 6.861 4.687 11.328s-1.562 8.257-4.687 11.372zM8.225 23.934c2.122 2.086 4.731 3.129 7.827 3.129s5.689-1.043 7.782-3.129c2.122-2.116 3.184-4.76 3.184-7.934s-1.061-5.803-3.184-7.89c-2.093-2.116-4.687-3.174-7.782-3.174s-5.704 1.058-7.827 3.174c-2.093 2.086-3.139 4.716-3.139 7.89s1.046 5.818 3.139 7.934z"></path>
<path fill="#fff" d="M49.357 32c-4.805 0-8.121-1.881-9.949-5.642l4.378-2.556c1.002 2.174 2.874 3.262 5.616 3.262 1.769 0 3.125-0.426 4.068-1.278 0.973-0.882 1.459-2.116 1.459-3.702v-21.51h5.085v21.51c0 3.174-1.002 5.627-3.007 7.361-2.005 1.704-4.554 2.556-7.65 2.556z"></path>
<path fill="#fff" d="M79.178 32c-4.805 0-8.121-1.881-9.949-5.642l4.378-2.556c1.002 2.174 2.874 3.262 5.615 3.262 1.769 0 3.125-0.426 4.068-1.278 0.973-0.882 1.459-2.116 1.459-3.702v-21.51h5.085v21.51c0 3.174-1.002 5.627-3.007 7.361-2.004 1.704-4.554 2.556-7.65 2.556z"></path>
<path fill="#fff" d="M128.236 27.372c-3.095 3.085-6.883 4.628-11.364 4.628s-8.284-1.543-11.409-4.628c-3.095-3.115-4.642-6.905-4.642-11.372s1.548-8.242 4.642-11.328c3.125-3.115 6.928-4.672 11.409-4.672s8.269 1.557 11.364 4.672c3.125 3.085 4.687 6.861 4.687 11.328s-1.562 8.257-4.687 11.372zM109.046 23.934c2.122 2.086 4.731 3.129 7.826 3.129s5.689-1.043 7.782-3.129c2.122-2.116 3.184-4.76 3.184-7.934s-1.062-5.803-3.184-7.89c-2.093-2.116-4.687-3.174-7.782-3.174s-5.704 1.058-7.826 3.174c-2.093 2.086-3.14 4.716-3.14 7.89s1.047 5.818 3.14 7.934z"></path>
</svg>
