<!-- Generated by IcoMoon.io -->
<svg version="1.1" xmlns="http://www.w3.org/2000/svg" width="32" height="32" viewBox="0 0 32 32">
<title>Vector</title>
<path fill="#fff" d="M30.675 10.565l-0.009-0.080c-0.017-0.1-0.047-0.196-0.090-0.285l-4.482-8.031c0 0-0.572-0.787-0.707-0.787h-19.099l-5.744 8.546-0.068 0.079-0.009 0.037c-0.049 0.087-0.088 0.179-0.119 0.276l-0.023 0.076c-0.066 0.244-0.063 0.506 0.009 0.748l0.027 0.086c0.036 0.102 0.081 0.194 0.133 0.277l13.915 19.627c0.071 0.102 0.158 0.193 0.265 0.276l0.081 0.056c0.079 0.055 0.162 0.099 0.282 0.148l0.079 0.029c0.136 0.039 0.254 0.057 0.369 0.057 0.117 0 0.231-0.017 0.384-0.061l0.094-0.037c0.092-0.036 0.175-0.081 0.274-0.15l0.062-0.043c0.107-0.084 0.192-0.176 0.24-0.247l13.904-19.602c0.123-0.183 0.203-0.396 0.233-0.622l0.011-0.102 0.006-0.080-0.017-0.189zM23.22 10.043l1.979-3.987 1.978 3.987h-3.957zM22.033 12.406h4.695l-7.826 11.036 3.131-11.036zM20.871 8.848l-2.858-4.317h5.001l-2.143 4.317zM11.715 12.406h7.54l-3.771 13.29-3.769-13.29zM12.463 10.043l3.021-4.564 3.021 4.564h-6.042zM10.335 8.49l-1.31-3.959h3.931l-2.621 3.959zM12.068 23.443l-7.827-11.037h4.696l3.131 11.037zM6.759 6.084l1.311 3.959h-3.932l2.621-3.959z"></path>
</svg>
